{
  "accessors": [
    {
      "bufferView": 2,
      "componentType": 5126,
      "count": 25902,
      "max": [
        5.886192798614502,
        15.590354919433594,
        6.7871270179748535
      ],
      "min": [
        -5.438492774963379,
        -15.46575927734375,
        -6.811138153076172
      ],
      "type": "VEC3"
    },
    {
      "bufferView": 2,
      "byteOffset": 310824,
      "componentType": 5126,
      "count": 25902,
      "max": [
        0.999992311000824,
        0.9999427199363708,
        0.9999723434448242
      ],
      "min": [
        -0.9999780654907227,
        -0.9999258518218994,
        -0.9999998807907104
      ],
      "type": "VEC3"
    },
    {
      "bufferView": 3,
      "componentType": 5126,
      "count": 25902,
      "max": [
        0.9992215633392334,
        0.9999916553497314,
        0.9996016621589661,
        -1.0
      ],
      "min": [
        -0.9707693457603455,
        -0.9999960660934448,
        -0.9999544620513916,
        -1.0
      ],
      "type": "VEC4"
    },
    {
      "bufferView": 1,
      "componentType": 5126,
      "count": 25902,
      "max": [
        0.9944199919700623,
        0.9966250061988831
      ],
      "min": [
        0.007011000066995621,
        0.006029000040143728
      ],
      "type": "VEC2"
    },
    {
      "bufferView": 0,
      "componentType": 5125,
      "count": 144162,
      "type": "SCALAR"
    },
    {
      "bufferView": 2,
      "byteOffset": 621648,
      "componentType": 5126,
      "count": 26044,
      "max": [
        -7.4367218017578125,
        15.541972160339355,
        6.7871270179748535
      ],
      "min": [
        -18.429840087890625,
        -15.49315071105957,
        -6.811138153076172
      ],
      "type": "VEC3"
    },
    {
      "bufferView": 2,
      "byteOffset": 934176,
      "componentType": 5126,
      "count": 26044,
      "max": [
        0.9999954104423523,
        0.9998353719711304,
        0.999922513961792
      ],
      "min": [
        -0.9999999403953552,
        -0.9996795058250427,
        -0.9999986886978149
      ],
      "type": "VEC3"
    },
    {
      "bufferView": 3,
      "byteOffset": 414432,
      "componentType": 5126,
      "count": 26044,
      "max": [
        0.9655653238296509,
        0.999796450138092,
        0.9997633695602417,
        1.0
      ],
      "min": [
        -0.9970387816429138,
        -0.999998927116394,
        -0.9999860525131226,
        -1.0
      ],
      "type": "VEC4"
    },
    {
      "bufferView": 1,
      "byteOffset": 207216,
      "componentType": 5126,
      "count": 26044,
      "max": [
        0.9944199919700623,
        0.9966250061988831
      ],
      "min": [
        0.007011000066995621,
        0.006029000040143728
      ],
      "type": "VEC2"
    },
    {
      "bufferView": 0,
      "byteOffset": 576648,
      "componentType": 5125,
      "count": 144162,
      "type": "SCALAR"
    }
  ],
  "asset": {
    "extras": {
      "author": "Francesco Coldesina (https://sketchfab.com/topfrank2013)",
      "license": "CC-BY-4.0 (http://creativecommons.org/licenses/by/4.0/)",
      "source": "https://sketchfab.com/3d-models/sport-shoes-cb341fb20baf4bb6b7811008b8a6a8b8",
      "title": "Sport Shoes"
    },
    "generator": "Sketchfab-12.65.0",
    "version": "2.0"
  },
  "bufferViews": [
    {
      "buffer": 0,
      "byteLength": 1153296,
      "name": "floatBufferViews",
      "target": 34963
    },
    {
      "buffer": 0,
      "byteLength": 415568,
      "byteOffset": 1153296,
      "byteStride": 8,
      "name": "floatBufferViews",
      "target": 34962
    },
    {
      "buffer": 0,
      "byteLength": 1246704,
      "byteOffset": 1568864,
      "byteStride": 12,
      "name": "floatBufferViews",
      "target": 34962
    },
    {
      "buffer": 0,
      "byteLength": 831136,
      "byteOffset": 2815568,
      "byteStride": 16,
      "name": "floatBufferViews",
      "target": 34962
    }
  ],
  "buffers": [
    {
      "byteLength": 3646704,
      "uri": "scene.bin"
    }
  ],
  "extensionsRequired": [
    "KHR_materials_pbrSpecularGlossiness"
  ],
  "extensionsUsed": [
    "KHR_materials_pbrSpecularGlossiness"
  ],
  "images": [
    {
      "uri": "textures/CL_HR_002_diffuse.jpeg"
    },
    {
      "uri": "textures/CL_HR_002_specularGlossiness.png"
    },
    {
      "uri": "textures/CL_HR_002_normal.png"
    },
    {
      "uri": "textures/CL_HR_002_occlusion.png"
    }
  ],
  "materials": [
    {
      "doubleSided": true,
      "emissiveTexture": {
        "index": 0
      },
      "extensions": {
        "KHR_materials_pbrSpecularGlossiness": {
          "diffuseFactor": [
            1.0,
            1.0,
            1.0,
            1.0
          ],
          "diffuseTexture": {
            "index": 0
          },
          "glossinessFactor": 1.0,
          "specularFactor": [
            1.0,
            1.0,
            1.0
          ],
          "specularGlossinessTexture": {
            "index": 1
          }
        }
      },
      "name": "CL_HR_002",
      "normalTexture": {
        "index": 2
      },
      "occlusionTexture": {
        "index": 3
      }
    }
  ],
  "meshes": [
    {
      "name": "Object_0",
      "primitives": [
        {
          "attributes": {
            "NORMAL": 1,
            "POSITION": 0,
            "TANGENT": 2,
            "TEXCOORD_0": 3
          },
          "indices": 4,
          "material": 0,
          "mode": 4
        }
      ]
    },
    {
      "name": "Object_1",
      "primitives": [
        {
          "attributes": {
            "NORMAL": 6,
            "POSITION": 5,
            "TANGENT": 7,
            "TEXCOORD_0": 8
          },
          "indices": 9,
          "material": 0,
          "mode": 4
        }
      ]
    }
  ],
  "nodes": [
    {
      "children": [
        1
      ],
      "matrix": [
        1.0,
        0.0,
        0.0,
        0.0,
        0.0,
        2.220446049250313e-16,
        -1.0,
        0.0,
        0.0,
        1.0,
        2.220446049250313e-16,
        0.0,
        0.0,
        0.0,
        0.0,
        1.0
      ],
      "name": "Sketchfab_model"
    },
    {
      "children": [
        2,
        3
      ],
      "name": "Shoes--HH-A1.obj.cleaner.materialmerger.gles"
    },
    {
      "mesh": 0,
      "name": "Object_2"
    },
    {
      "mesh": 1,
      "name": "Object_3"
    }
  ],
  "samplers": [
    {
      "magFilter": 9729,
      "minFilter": 9987,
      "wrapS": 10497,
      "wrapT": 10497
    }
  ],
  "scene": 0,
  "scenes": [
    {
      "name": "Sketchfab_Scene",
      "nodes": [
        0
      ]
    }
  ],
  "textures": [
    {
      "sampler": 0,
      "source": 0
    },
    {
      "sampler": 0,
      "source": 1
    },
    {
      "sampler": 0,
      "source": 2
    },
    {
      "sampler": 0,
      "source": 3
    }
  ]
}
